<?xml version="1.0" encoding="utf-8"?>
<svg version="1.1" id="Artwork" xmlns="http://www.w3.org/2000/svg" xmlns:xlink="http://www.w3.org/1999/xlink" x="0px" y="0px" viewBox="263.3299865722656 263.3000183105469 3100.89990234375 283.5500183105469" style="enable-background:new 0 0 3627.53 810.11;" xml:space="preserve">
<g id="Logo">
	<polygon points="742.01,486.12 628.75,486.12 628.75,431.72 729.72,431.72 729.72,377.33 628.75,377.33 628.75,323.68 
		740.15,323.68 740.15,268.91 567.65,268.91 567.65,540.89 742.01,540.89 	"></polygon>
	<g>
		<circle cx="1335.5" cy="360.19" r="29.06"></circle>
		<circle cx="1392.13" cy="302.82" r="29.06"></circle>
	</g>
	<path d="M378.09,546.48c39.49,0,74.14-20.12,94.63-51.04v45.46h53.65V389.62H382.56v52.16h60.36
		c-5.59,27.94-30.18,49.55-59.99,49.55c-33.16,0-59.98-26.83-59.98-65.95v-40.24c0-38.37,28.69-66.69,68.92-66.69
		c31.3,0,59.24,17.14,68.55,42.1l56.63-19.75c-15.65-47.69-66.32-77.5-124.81-77.5c-73.77,0-128.91,49.55-128.91,121.83v40.24
		C263.33,495.06,314.75,546.48,378.09,546.48z"></path>
	<polygon points="903.68,381.54 903.68,381.54 903.68,348.97 843.4,348.97 843.4,396.05 843.4,396.05 843.4,428.62 903.68,428.62 	
		"></polygon>
	<rect x="769.93" y="268.91" width="206.41" height="54.77"></rect>
	<polygon points="1146.4,541.26 1207.5,541.26 1207.5,438.06 1309.96,269.28 1241.04,269.28 1176.58,380.68 1112.87,269.28 
		1043.95,269.28 1146.4,438.8 	"></polygon>
	<polygon points="903.68,504.62 903.68,504.62 903.68,457.54 843.4,457.54 843.4,490.11 843.4,490.11 843.4,540.8 903.68,540.8 	"></polygon>
	<path d="M2146.65,541.26l-74.14-103.95c36.14-11.18,61.47-42.84,61.47-81.59c0-49.18-40.61-86.44-92.03-86.44h-35.77v55.14h33.53
		c17.88,0,31.67,14.16,31.67,32.79c0,18.63-13.79,32.79-31.67,32.79h-33.53v52.16l66.32,99.1H2146.65z"></path>
	<path d="M3009.54,268.54h-89.79v272.35h89.79c84.2,0,143.81-57.75,143.81-135.99C3153.35,326.66,3093.74,268.54,3009.54,268.54z
		 M3014.38,486.12h-33.53V323.31h33.53c45.46,0,76.38,35.02,76.38,81.59S3059.84,486.12,3014.38,486.12z"></path>
	<polygon points="3250.96,431.73 3351.93,431.73 3351.93,377.33 3250.96,377.33 3250.96,323.68 3362.37,323.68 3362.37,268.91 
		3189.86,268.91 3189.86,540.89 3364.23,540.89 3364.23,486.12 3250.96,486.12 	"></polygon>
	<polygon points="1984.29,449.28 1952.7,404.54 1983.89,359.27 1952.29,314.53 1983.48,269.28 1920.49,269.33 1889.31,315.04 
		1920.91,359.79 1889.73,405.06 1921.33,449.81 1890.15,495.1 1923.67,541.67 1987.36,541.67 1953.11,494.58 	"></polygon>
	<path d="M1845.17,435.45V269.28h-60.73v167.28c0,31.3-22.35,54.4-52.9,54.4c-30.55,0-52.91-23.1-52.91-54.4V269.28h-60.73v166.17
		c0,64.08,48.06,111.4,113.63,111.4C1797.11,546.85,1845.17,499.53,1845.17,435.45z"></path>
	<path d="M2681.05,436.2c0,31.29-22.36,54.39-52.91,54.39s-52.9-23.1-52.9-54.39V268.91h-60.73v166.17
		c0,64.08,48.06,111.4,113.63,111.4c65.57,0,113.63-47.32,113.63-111.4V268.91h-60.73V436.2z"></path>
	<path d="M2328.23,441.78h60.36c-5.59,27.94-30.18,49.55-59.99,49.55c-33.16,0-59.98-26.83-59.98-65.95v-40.24
		c0-38.37,28.69-66.69,68.92-66.69c31.3,0,59.24,17.14,68.55,42.1l56.63-19.75c-15.65-47.69-66.32-77.5-124.81-77.5
		c-73.77,0-128.91,49.55-128.91,121.83v40.24c0,69.67,51.41,121.09,114.75,121.09c39.49,0,74.14-20.12,94.63-51.04v45.46h53.65
		V389.62h-143.81V441.78z"></path>
	<path d="M1437.95,263.69v57.37c44.71,0,80.1,36.51,80.1,84.2s-35.39,84.2-80.1,84.2c-44.71,0-80.1-36.51-80.1-84.2h-62.59
		c0,79.36,63.34,141.58,142.69,141.58c79.36,0,142.7-62.22,142.7-141.58S1517.31,263.69,1437.95,263.69z"></path>
	<path d="M2857.18,396.94c9.02-8.14,24.12-21.77,24.12-46.75c0-24.99-15.1-38.61-24.12-46.75c-0.4-0.36-0.77-0.7-1.12-1.01
		c-4.51-4.74-5.28-11.55-5.39-14.75v-19.13h-61.2v25.45h0.02c0,0.32-0.02,0.63-0.02,0.95c0,24.99,15.1,38.61,24.12,46.75
		c6.49,5.86,6.49,6.16,6.49,8.49c0,2.34,0,2.64-6.49,8.49c-8.68,7.84-22.95,20.78-24.02,44.01h-0.05c-0.01,0.44-0.05,0.86-0.05,1.3
		c0,0.25,0.02,0.47,0.03,0.72c0,0.24-0.03,0.47-0.03,0.72c0,0.45,0.04,0.86,0.05,1.3h0.05c1.06,23.23,15.33,36.18,24.02,44.01
		c6.49,5.86,6.49,6.16,6.49,8.49c0,2.34,0,2.64-6.49,8.49c-9.02,8.14-24.12,21.77-24.12,46.75c0,0.32,0.01,0.63,0.02,0.95h-0.02
		v25.45h61.2v-19.13c0.1-3.2,0.88-10.01,5.39-14.75c0.35-0.32,0.72-0.66,1.12-1.01c9.02-8.14,24.12-21.77,24.12-46.75
		c0-24.98-15.1-38.61-24.12-46.75c-5.76-5.2-6.41-6.02-6.48-7.78C2850.77,402.96,2851.41,402.14,2857.18,396.94z"></path>
</g>
</svg>
