<svg xmlns="http://www.w3.org/2000/svg" width="148" height="32" viewBox="0 0 148 32">
    <g fill="none" fill-rule="evenodd">
        <g fill="#000" fill-rule="nonzero">
            <g>
                <g>
                    <path d="M147.33 22.154c.402.267.67.936.67 2.14 0 4.95-5.224 7.09-9.911 7.09-4.956 0-9.912-2.14-9.912-7.357h5.626c0 2.542 2.41 3.746 4.554 3.746 1.607 0 3.75-.803 3.75-2.81 0-1.471-2.143-1.873-3.75-2.14-1.608-.402-2.813-.67-2.813-.67zm-50.762 0c.536 2.675 1.742 4.95 4.554 4.95 2.813 0 4.42-2.275 4.956-4.95h6.429c-.804 6.421-5.224 9.23-9.242 9.23-3.348 0-6.027-.668-7.366-3.076v2.408h-5.894v-8.562zm-61.744 0c0 3.077.937 4.548 3.348 4.548 2.813 0 4.42-1.471 4.688-4.548h6.429v8.562h-6.161v-3.077l-.158.258c-1.51 2.365-4.212 3.488-6.54 3.488-6.428 0-8.035-3.746-8.035-9.231zm86.255 0v8.562h-6.43v-8.562h6.43zm-33.35 0v8.562h-6.43v-8.562h6.43zm-13.796 0v8.562h-6.429v-8.562h6.429zm-13.93 0v8.562h-6.428v-8.562h6.429zm-53.574 0v8.562H0v-8.562h6.429zm19.823 0v8.562h-7.5l-5.492-8.562h12.992zM26.118.615v17.258h-6.43V.615h6.43zm111.97 8.027c4.688 0 9.376 1.338 9.51 7.358h-5.223c0-2.81-2.143-3.746-4.286-3.746-1.474 0-3.75.67-3.75 2.81 0 1.471 2.009 1.872 3.75 2.14 1.607.268 1.607.268 2.812.669h-11.384c-.268-.535-.67-1.204-.67-2.14 0-5.352 4.554-7.09 9.242-7.09zM96.168.615V11.72c1.473-2.274 4.285-3.077 7.098-3.077 3.884 0 8.438 2.676 9.242 9.23h-6.563c-.536-2.808-2.277-4.949-4.956-4.949-2.678 0-4.018 2.274-4.554 4.95h-6.429V.615h6.162zm-88.8 0l10.447 17.258h-6.965l-4.42-7.358v7.358H0V.615h7.367zm120.409 8.027v5.351c-5.626-.267-6.563 2.542-6.831 3.746h-6.43V9.177h5.894v2.542h.268c1.741-2.408 3.75-3.077 7.099-3.077zm-48.352 0c4.554 0 8.305 2.542 8.305 7.893v1.204h-6.43c0-2.408-.67-4.28-3.75-4.28-2.812 0-3.75 1.872-3.75 4.28H67.37c0-2.408-.67-4.28-3.75-4.28-1.206 0-3.75.534-4.018 4.28H53.44V9.177h5.893v3.211c1.607-2.14 4.018-3.746 6.83-3.746 2.813 0 5.626 1.338 6.831 3.746 1.206-1.873 3.349-3.746 6.43-3.746zm-44.6.535v8.562h-6.43V9.177h6.43zm14.465 0v8.562h-6.43V9.177h6.43z" transform="translate(-252 -92) translate(0 56) translate(252 36)"/>
                </g>
            </g>
        </g>
    </g>
</svg>
